HIERARCHY
ROOT Hips
{
  OFFSET 57.8838 95.319 338.509
  CHANNELS 6 Xposition Yposition Zposition Zrotation Xrotation Yrotation
  JOINT LeftUpLeg
  {
    OFFSET 8.64259 1.95398 -2.38835
    CHANNELS 3 Zrotation Xrotation Yrotation
    JOINT LeftLeg
    {
      OFFSET 43.7702 0 0
      CHANNELS 3 Zrotation Xrotation Yrotation
      JOINT LeftFoot
      {
        OFFSET 40.6238 0 0
        CHANNELS 3 Zrotation Xrotation Yrotation
        JOINT LeftToeBase
        {
          OFFSET 12.7242 0 0
          CHANNELS 3 Zrotation Xrotation Yrotation
          End Site
          {
            OFFSET 0 0 0
          }
        }
      }
    }
  }
  JOINT RightUpLeg
  {
    OFFSET -8.2249 1.95398 -2.59336
    CHANNELS 3 Zrotation Xrotation Yrotation
    JOINT RightLeg
    {
      OFFSET 43.5653 0 0
      CHANNELS 3 Zrotation Xrotation Yrotation
      JOINT RightFoot
      {
        OFFSET 40.6238 0 0
        CHANNELS 3 Zrotation Xrotation Yrotation
        JOINT RightToeBase
        {
          OFFSET 12.7242 0 0
          CHANNELS 3 Zrotation Xrotation Yrotation
          End Site
          {
            OFFSET 0 0 0
          }
        }
      }
    }
  }
  JOINT Spine
  {
    OFFSET 0.165834 0.87714 6.61349
    CHANNELS 3 Zrotation Xrotation Yrotation
    JOINT Spine1
    {
      OFFSET 7.38963 1.71661e-005 0
      CHANNELS 3 Zrotation Xrotation Yrotation
      JOINT Spine2
      {
        OFFSET 11.9445 1.14441e-005 0
        CHANNELS 3 Zrotation Xrotation Yrotation
        JOINT Spine3
        {
          OFFSET 14.7254 4.19617e-005 0
          CHANNELS 3 Zrotation Xrotation Yrotation
          JOINT Spine4
          {
            OFFSET 10.9679 0 0
            CHANNELS 3 Zrotation Xrotation Yrotation
            JOINT RightShoulder
            {
              OFFSET 2.46616 -1.6653 3.69651
              CHANNELS 3 Zrotation Xrotation Yrotation
              JOINT RightArm
              {
                OFFSET 13.0012 0 0
                CHANNELS 3 Zrotation Xrotation Yrotation
                JOINT RightForeArm
                {
                  OFFSET 28.7848 1.62311e-005 0
                  CHANNELS 3 Zrotation Xrotation Yrotation
                  JOINT RightHand
                  {
                    OFFSET 26.5688 1.62095e-005 0
                    CHANNELS 3 Zrotation Xrotation Yrotation
                    End Site
                    {
                      OFFSET 0 0 0
                    }
                  }
                }
              }
            }
            JOINT LeftShoulder
            {
              OFFSET 2.38034 -1.29275 -3.7523
              CHANNELS 3 Zrotation Xrotation Yrotation
              JOINT LeftArm
              {
                OFFSET 16.3182 6.07031e-005 0
                CHANNELS 3 Zrotation Xrotation Yrotation
                JOINT LeftForeArm
                {
                  OFFSET 27.0901 0 0
                  CHANNELS 3 Zrotation Xrotation Yrotation
                  JOINT LeftHand
                  {
                    OFFSET 24.5451 1.51738e-005 0
                    CHANNELS 3 Zrotation Xrotation Yrotation
                    End Site
                    {
                      OFFSET 0 0 0
                    }
                  }
                }
              }
            }
            JOINT Neck
            {
              OFFSET 5.0226 -0.0266342 0
              CHANNELS 3 Zrotation Xrotation Yrotation
              JOINT Head
              {
                OFFSET 6.69364 2.86102e-005 0
                CHANNELS 3 Zrotation Xrotation Yrotation
                End Site
                {
                  OFFSET 0 0 0
                }
              }
            }
          }
        }
      }
    }
  }
}
MOTION
Frames:	7
Frame Time:	0.0416667
-324.842 83.9054 337.4 99.912 21.771 75.6169 -169.552 21.4053 86.4523 -36.4159 9.71141 -9.94115 69.5362 -5.40743 11.1029 37.2155 4.8284 4.01049 -177.297 -21.9411 70.9922 -44.5513 -21.124 -10.8423 67.9613 -10.1143 44.291 86.6021 -23.1338 67.6686 3.9219 7.50708 -90.0102 11.9143 7.79398 -0.858415 0.266289 7.74859 -1.20267 -22.4536 7.68941 1.53807 -2.44097 7.68941 1.53806 113.455 -34.3558 -60.5216 41.8166 -23.0056 1.86831 -7.97719 -4.98848 -39.4019 -6.01519 -0.625812 7.79784 -70.6819 -51.1013 107.796 -26.8104 -40.4857 3.62041 5.59321 84.1103 0.0855767 -11.0693 0.233434 -5.76043 -6.22211 1.12787 20.311 -15.1791 7.03352 -57.8891 
-318.485 87.1764 329.578 100.739 23.254 74.3521 -179.655 13.9025 83.1995 -22.7983 -64.673 9.61163 37.813 -29.1998 7.30585 -4.07521 -55.2462 33.5567 -173.783 -9.08182 75.95 -63.6785 -15.6874 -10.6799 73.5252 -9.21181 35.8561 78.7099 -22.0236 63.3196 3.47861 7.79641 -89.8304 11.3091 7.00154 -0.359322 -0.343044 6.97891 -0.668659 -23.0239 6.78425 1.77155 -3.01125 6.78425 1.77155 110.582 -34.041 -65.8605 44.5391 -18.9246 4.75344 -8.03723 -10.0191 -34.7041 -6.93032 -0.721237 7.3235 -73.1376 -54.9039 103.859 -31.5329 -35.233 -5.73816 4.8673 79.4853 0.0439372 -8.75335 0.295695 -9.10637 1.35786 1.18032 22.2199 -20.4949 8.15654 -57.6193 
-312.88 90.487 322.743 101.948 25.5255 75.6089 -179.089 9.37079 77.5436 -10.7602 -71.0927 19.5549 42.8287 -36.692 -4.3737 -124.87 -6.78993 -33.5133 -172.073 4.76604 83.9045 -71.6888 -11.0573 -9.12085 67.1888 -4.19396 16.7676 74.794 -19.848 63.2641 3.00338 8.01658 -90.046 10.8714 5.95875 -0.650376 -0.786156 5.92433 -0.912931 -23.429 5.87777 1.17695 -3.41639 5.87777 1.17694 108.522 -32.8367 -69.5808 46.6667 -15.1292 4.05275 -5.21385 -14.6603 -26.7453 -8.86818 -0.818163 5.83596 -74.681 -56.3223 101.569 -40.9317 -29.886 -20.4605 8.06011 79.2768 0.0652928 -2.50952 0.172257 -13.422 6.66589 1.48042 23.431 -24.9281 8.55109 -53.8162 
-307.568 91.3645 316.727 103.289 27.6823 77.4053 -176.627 -12.4384 81.6696 -6.14818 4.32802 -4.33587 61.8404 0.813711 13.3771 34.0863 2.14965 0.07872 -173.462 13.6179 91.1939 -67.2382 -10.9697 -7.53592 62.4714 0.721176 5.40434 45.2234 -14.8238 24.9728 2.56739 8.12174 -90.349 10.6626 4.95247 -1.14486 -0.999555 4.89729 -1.3622 -23.6107 5.067 0.400357 -3.59805 5.06699 0.400355 106.941 -32.5027 -72.625 47.8657 -13.4597 5.03181 -3.11024 -16.9709 -21.5107 -11.3178 -0.741102 2.52012 -74.551 -55.6747 101.785 -43.1096 -18.7947 -27.0551 2.87312 72.4429 0.0145943 6.35477 -0.630925 -13.7165 10.013 1.69346 22.9453 -28.1066 7.99398 -47.3668 
-302.553 91.3171 311.301 104.469 28.8586 77.0202 -176.741 -20.9262 81.4864 -0.341522 6.39764 -4.60766 61.2487 3.82498 12.9025 37.1146 3.44539 3.04201 -175.998 18.2887 93.6322 -51.302 -12.0644 -6.10255 65.9915 -1.64313 9.23122 29.6928 -0.809841 -8.25684 2.28911 8.22422 -90.3535 10.4515 4.3979 -1.09096 -1.21259 4.34562 -1.2838 -23.8076 4.52205 0.283941 -3.79499 4.52204 0.283937 105.505 -35.3075 -75.709 46.1848 -10.7691 6.81644 -1.77298 -17.1091 -19.5949 -13.6498 -0.785662 1.53708 -75.5609 -56.4148 100.327 -39.101 -9.90391 -31.1675 -3.16332 63.9045 -0.425517 10.2973 -1.39172 -16.5291 10.436 1.18246 21.0026 -26.2209 5.51351 -41.4335 
-297.492 91.1205 305.874 104.281 30.587 73.6896 -179.409 -23.9848 76.8189 -1.8909 6.38616 -4.84618 61.7947 5.43049 13.543 42.6696 5.88576 3.34763 -179.097 21.244 90.7867 -30.5066 -16.973 -4.15911 67.2645 0.628437 9.76768 26.1952 4.1324 -6.21856 1.95373 8.19997 -89.9146 10.4861 3.93103 -0.177936 -1.17885 3.91939 -0.351054 -23.7601 3.80248 1.01349 -3.74747 3.80247 1.01348 103.519 -40.8707 -79.6306 41.2816 -6.79617 7.998 -0.466292 -13.6456 -18.7172 -11.8106 -0.527239 -0.0673437 -77.0135 -57.957 98.2638 -35.966 -7.88018 -35.3708 -2.5164 66.7882 -3.53247 10.1325 -0.839561 -11.1713 6.97335 0.0672204 18.1977 -18.1548 1.61321 -35.7587 
-291.757 90.428 300.154 106.058 32.3521 69.1854 179.314 -28.2597 73.8055 -5.49747 9.65997 -5.4888 59.598 4.16661 11.9739 49.7861 9.25263 4.76311 179.744 22.8804 87.4697 -28.1286 -12.3217 -4.32152 71.0481 1.03193 14.8128 25.396 5.43654 -6.98494 1.65917 8.28825 -89.5243 10.2898 3.52304 0.641212 -1.37643 3.54785 0.485338 -23.9429 3.16733 1.67136 -3.93026 3.1673 1.67134 101.253 -47.5098 -83.4552 35.4494 -4.65161 7.99957 0.267516 -12.755 -18.0009 -12.0675 -0.524034 -0.0868034 -79.7548 -59.1471 94.5036 -34.7873 -8.88493 -37.1484 -3.99256 69.1377 -0.910958 8.72666 -1.07856 -14.7662 1.40983 -1.02887 13.6031 -7.51051 -1.71833 -27.6529 
